# xmcd
#
# Track frame offsets:
#	150
#	11316
#	23458
#	34583
#	52077
#	67855
#	81264
#	97475
#	107904
#	121229
#	134695
#
# Disc length: 1970 seconds
#
# Revision: 2
# Processed by: cddbd v1.5.2PL0 Copyright (c) Steve Scherf et al.
# Submitted via: audiograbber 1.83.01
#
DISCID=8e07b00b
DTITLE=Crystal Gayle - Classic Crystal
DYEAR=1979
DGENRE=Country
TTITLE0=Somebody Loves You
TTITLE1=Don't It Make My Brown Eyes Blue
TTITLE2=Ready For The Times To Get Better
TTITLE3=You Never Miss A Real Good Thing ('Till He Says Goodbye)
TTITLE4=When I Dream
TTITLE5=I'll Do It All Over Again
TTITLE6=I'll Get Over You
TTITLE7=Wrong Road Again
TTITLE8=Talking In Your Sleep
TTITLE9=Why Have You Left The One You Left Me For
TTITLE10=Heart Mender
EXTD=
EXTT0=
EXTT1=
EXTT2=
EXTT3=
EXTT4=
EXTT5=
EXTT6=
EXTT7=
EXTT8=
EXTT9=
EXTT10=
PLAYORDER=
